<mxfile host="app.diagrams.net" modified="2022-06-01T16:10:12.841Z" agent="5.0 (Macintosh; Intel Mac OS X 10_15_7) AppleWebKit/537.36 (KHTML, like Gecko) Chrome/99.0.4844.84 Safari/537.36" etag="OAhrXeeC1F-wQPYLkxSM" version="18.1.3" type="github">
  <diagram id="o6jvTex81GfenW0hnCaR" name="Programa principal">
    <mxGraphModel dx="866" dy="465" grid="1" gridSize="10" guides="1" tooltips="1" connect="1" arrows="1" fold="1" page="1" pageScale="1" pageWidth="1169" pageHeight="827" math="0" shadow="0">
      <root>
        <mxCell id="0" />
        <mxCell id="1" parent="0" />
        <mxCell id="arpzfeqfdPad3zNw-hGP-3" value="" style="edgeStyle=orthogonalEdgeStyle;rounded=0;orthogonalLoop=1;jettySize=auto;html=1;" parent="1" source="arpzfeqfdPad3zNw-hGP-1" target="arpzfeqfdPad3zNw-hGP-2" edge="1">
          <mxGeometry relative="1" as="geometry" />
        </mxCell>
        <mxCell id="arpzfeqfdPad3zNw-hGP-1" value="Inicio" style="ellipse;whiteSpace=wrap;html=1;" parent="1" vertex="1">
          <mxGeometry x="350" y="280" width="120" height="80" as="geometry" />
        </mxCell>
        <mxCell id="arpzfeqfdPad3zNw-hGP-5" value="" style="edgeStyle=orthogonalEdgeStyle;rounded=0;orthogonalLoop=1;jettySize=auto;html=1;" parent="1" source="arpzfeqfdPad3zNw-hGP-2" target="arpzfeqfdPad3zNw-hGP-4" edge="1">
          <mxGeometry relative="1" as="geometry" />
        </mxCell>
        <mxCell id="arpzfeqfdPad3zNw-hGP-2" value="Definir filas y columnas" style="shape=parallelogram;perimeter=parallelogramPerimeter;whiteSpace=wrap;html=1;fixedSize=1;" parent="1" vertex="1">
          <mxGeometry x="350" y="390" width="120" height="60" as="geometry" />
        </mxCell>
        <mxCell id="x7YQmbPDGNPO8EsBWRgd-2" value="" style="edgeStyle=orthogonalEdgeStyle;rounded=0;orthogonalLoop=1;jettySize=auto;html=1;" edge="1" parent="1" source="arpzfeqfdPad3zNw-hGP-4" target="x7YQmbPDGNPO8EsBWRgd-1">
          <mxGeometry relative="1" as="geometry" />
        </mxCell>
        <mxCell id="arpzfeqfdPad3zNw-hGP-4" value="Matriz de minas" style="rounded=0;whiteSpace=wrap;html=1;" parent="1" vertex="1">
          <mxGeometry x="350" y="480" width="120" height="60" as="geometry" />
        </mxCell>
        <mxCell id="x7YQmbPDGNPO8EsBWRgd-4" value="" style="edgeStyle=orthogonalEdgeStyle;rounded=0;orthogonalLoop=1;jettySize=auto;html=1;" edge="1" parent="1" source="x7YQmbPDGNPO8EsBWRgd-1" target="x7YQmbPDGNPO8EsBWRgd-3">
          <mxGeometry relative="1" as="geometry" />
        </mxCell>
        <mxCell id="x7YQmbPDGNPO8EsBWRgd-1" value="Matriz de cuantas minas hay alrededor" style="whiteSpace=wrap;html=1;rounded=0;" vertex="1" parent="1">
          <mxGeometry x="350" y="570" width="120" height="60" as="geometry" />
        </mxCell>
        <mxCell id="x7YQmbPDGNPO8EsBWRgd-12" value="" style="edgeStyle=orthogonalEdgeStyle;rounded=0;orthogonalLoop=1;jettySize=auto;html=1;" edge="1" parent="1" source="x7YQmbPDGNPO8EsBWRgd-3" target="x7YQmbPDGNPO8EsBWRgd-11">
          <mxGeometry relative="1" as="geometry" />
        </mxCell>
        <mxCell id="x7YQmbPDGNPO8EsBWRgd-3" value="Matriz de mostrar en pantalla" style="whiteSpace=wrap;html=1;rounded=0;" vertex="1" parent="1">
          <mxGeometry x="350" y="660" width="120" height="60" as="geometry" />
        </mxCell>
        <mxCell id="x7YQmbPDGNPO8EsBWRgd-10" value="" style="edgeStyle=orthogonalEdgeStyle;rounded=0;orthogonalLoop=1;jettySize=auto;html=1;" edge="1" parent="1" source="x7YQmbPDGNPO8EsBWRgd-7" target="x7YQmbPDGNPO8EsBWRgd-9">
          <mxGeometry relative="1" as="geometry" />
        </mxCell>
        <mxCell id="x7YQmbPDGNPO8EsBWRgd-7" value="Función abrir mina" style="whiteSpace=wrap;html=1;rounded=0;" vertex="1" parent="1">
          <mxGeometry x="350" y="850" width="120" height="60" as="geometry" />
        </mxCell>
        <mxCell id="x7YQmbPDGNPO8EsBWRgd-18" value="" style="edgeStyle=orthogonalEdgeStyle;rounded=0;orthogonalLoop=1;jettySize=auto;html=1;startArrow=none;" edge="1" parent="1" source="x7YQmbPDGNPO8EsBWRgd-19" target="x7YQmbPDGNPO8EsBWRgd-17">
          <mxGeometry relative="1" as="geometry" />
        </mxCell>
        <mxCell id="x7YQmbPDGNPO8EsBWRgd-24" value="" style="edgeStyle=orthogonalEdgeStyle;rounded=0;orthogonalLoop=1;jettySize=auto;html=1;startArrow=none;" edge="1" parent="1" source="x7YQmbPDGNPO8EsBWRgd-25" target="x7YQmbPDGNPO8EsBWRgd-23">
          <mxGeometry relative="1" as="geometry" />
        </mxCell>
        <mxCell id="x7YQmbPDGNPO8EsBWRgd-9" value="¿Abrió una mina?" style="rhombus;whiteSpace=wrap;html=1;rounded=0;" vertex="1" parent="1">
          <mxGeometry x="325" y="940" width="170" height="80" as="geometry" />
        </mxCell>
        <mxCell id="x7YQmbPDGNPO8EsBWRgd-13" value="" style="edgeStyle=orthogonalEdgeStyle;rounded=0;orthogonalLoop=1;jettySize=auto;html=1;" edge="1" parent="1" source="x7YQmbPDGNPO8EsBWRgd-11" target="x7YQmbPDGNPO8EsBWRgd-7">
          <mxGeometry relative="1" as="geometry" />
        </mxCell>
        <mxCell id="x7YQmbPDGNPO8EsBWRgd-11" value="Función imprimir matriz" style="rounded=0;whiteSpace=wrap;html=1;" vertex="1" parent="1">
          <mxGeometry x="350" y="760" width="120" height="60" as="geometry" />
        </mxCell>
        <mxCell id="x7YQmbPDGNPO8EsBWRgd-22" value="" style="edgeStyle=orthogonalEdgeStyle;rounded=0;orthogonalLoop=1;jettySize=auto;html=1;" edge="1" parent="1" source="x7YQmbPDGNPO8EsBWRgd-17" target="x7YQmbPDGNPO8EsBWRgd-21">
          <mxGeometry relative="1" as="geometry" />
        </mxCell>
        <mxCell id="x7YQmbPDGNPO8EsBWRgd-17" value="Función partida perdida" style="whiteSpace=wrap;html=1;rounded=0;" vertex="1" parent="1">
          <mxGeometry x="350" y="1090" width="120" height="60" as="geometry" />
        </mxCell>
        <mxCell id="x7YQmbPDGNPO8EsBWRgd-19" value="Si" style="text;html=1;strokeColor=none;fillColor=none;align=center;verticalAlign=middle;whiteSpace=wrap;rounded=0;" vertex="1" parent="1">
          <mxGeometry x="380" y="1040" width="60" height="30" as="geometry" />
        </mxCell>
        <mxCell id="x7YQmbPDGNPO8EsBWRgd-20" value="" style="edgeStyle=orthogonalEdgeStyle;rounded=0;orthogonalLoop=1;jettySize=auto;html=1;endArrow=none;" edge="1" parent="1" source="x7YQmbPDGNPO8EsBWRgd-9" target="x7YQmbPDGNPO8EsBWRgd-19">
          <mxGeometry relative="1" as="geometry">
            <mxPoint x="410" y="1020" as="sourcePoint" />
            <mxPoint x="410" y="1110" as="targetPoint" />
          </mxGeometry>
        </mxCell>
        <mxCell id="x7YQmbPDGNPO8EsBWRgd-21" value="Fin" style="ellipse;whiteSpace=wrap;html=1;rounded=0;" vertex="1" parent="1">
          <mxGeometry x="350" y="1181" width="120" height="60" as="geometry" />
        </mxCell>
        <mxCell id="x7YQmbPDGNPO8EsBWRgd-23" value="Cambiar esa casilla a true" style="whiteSpace=wrap;html=1;rounded=0;" vertex="1" parent="1">
          <mxGeometry x="600" y="950" width="120" height="60" as="geometry" />
        </mxCell>
        <mxCell id="x7YQmbPDGNPO8EsBWRgd-25" value="No" style="text;html=1;strokeColor=none;fillColor=none;align=center;verticalAlign=middle;whiteSpace=wrap;rounded=0;" vertex="1" parent="1">
          <mxGeometry x="530" y="965" width="40" height="30" as="geometry" />
        </mxCell>
        <mxCell id="x7YQmbPDGNPO8EsBWRgd-26" value="" style="edgeStyle=orthogonalEdgeStyle;rounded=0;orthogonalLoop=1;jettySize=auto;html=1;endArrow=none;" edge="1" parent="1" source="x7YQmbPDGNPO8EsBWRgd-9" target="x7YQmbPDGNPO8EsBWRgd-25">
          <mxGeometry relative="1" as="geometry">
            <mxPoint x="495" y="980" as="sourcePoint" />
            <mxPoint x="600" y="980" as="targetPoint" />
          </mxGeometry>
        </mxCell>
      </root>
    </mxGraphModel>
  </diagram>
</mxfile>
